<?xml version="1.0" standalone="no"?>
<svg viewBox="0 0 200 200" xmlns="http://www.w3.org/2000/svg">
  <path fill="current" d="M27.1,-45.3C31.1,-44.7,27.3,-29.2,24,-19.1C20.6,-9.1,17.7,-4.5,24.8,4.1C32,12.8,49.3,25.6,48.8,29C48.3,32.3,29.9,26.1,18.8,25C7.7,23.8,3.8,27.6,-4,34.6C-11.9,41.5,-23.7,51.6,-30.6,50.3C-37.4,49,-39.3,36.4,-42.8,26.1C-46.3,15.8,-51.6,7.9,-57.3,-3.3C-63.1,-14.6,-69.5,-29.2,-63.7,-35.6C-57.9,-41.9,-40,-40.1,-27.4,-35.7C-14.7,-31.3,-7.4,-24.4,2.1,-28C11.6,-31.7,23.2,-46,27.1,-45.3Z" transform="translate(100 100)" />
</svg>
