<?xml version="1.0" encoding="UTF-8"?>
<svg version="1.1" xmlns="http://www.w3.org/2000/svg" width="69" height="85">
<path d="M0 0 C2.48219582 1.97133227 4.14847945 4.44751214 6 7 C7.15321752 8.34498262 8.3202311 9.67824578 9.5 11 C12.69478579 14.64305195 15.85295182 18.31565091 19 22 C24.50172237 17.9029727 28.17963939 13.20486656 31.89038086 7.49536133 C33.77567065 4.62219819 35.09242584 2.93838277 38 1 C43.72938986 1.22036115 47.33636072 2.89090715 52 6 C54.2902179 9.43532684 54.83961883 11.27240413 54.7734375 15.3359375 C53.03748203 21.31533969 47.34863569 25.73111437 43 30 C41.58590845 31.44063593 40.1866582 32.89622482 38.8125 34.375 C38.26207031 34.93960938 37.71164063 35.50421875 37.14453125 36.0859375 C35.46504186 38.89463989 35.59006896 40.78143252 36 44 C37.42941673 46.69065804 37.42941673 46.69065804 39.5 49.1875 C40.22445312 50.12851562 40.94890625 51.06953125 41.6953125 52.0390625 C42.45585938 53.01617187 43.21640625 53.99328125 44 55 C45.46486513 57.01610358 46.92348708 59.03676218 48.375 61.0625 C50.16910713 63.55352126 51.83007814 65.83007814 54 68 C54.88892784 74.55584279 54.88892784 74.55584279 52.76171875 78.01171875 C49.71261706 81.62070511 46.99121277 84.69698936 42.125 85.4375 C38.06308265 84.86883157 36.51238201 83.03310713 34 80 C30.90389906 75.70663609 27.98938035 71.28915132 25.08398438 66.86523438 C24.48779297 65.98544922 23.89160156 65.10566406 23.27734375 64.19921875 C22.74359131 63.39315186 22.20983887 62.58708496 21.65991211 61.7565918 C21.11214111 61.1769165 20.56437012 60.59724121 20 60 C18.68 60 17.36 60 16 60 C13.80232847 62.19556729 13.80232847 62.19556729 11.75 65.0625 C3.96026285 74.94996603 3.96026285 74.94996603 -1 78 C-5.19110503 78.42766378 -7.53308355 76.85040397 -10.8125 74.4375 C-13.62367662 71.77162015 -15.41260678 69.3073453 -15.58984375 65.26171875 C-14.19992316 59.9321557 -9.62844298 55.95880198 -6 52 C-4.43842521 50.24669712 -2.89521661 48.4767815 -1.375 46.6875 C-0.70210937 45.92824219 -0.02921875 45.16898438 0.6640625 44.38671875 C2.26126638 42.01511726 2.26126638 42.01511726 1.90234375 38.97265625 C0.96931186 35.89890185 -0.01402767 34.19510137 -2.0625 31.75 C-2.99642578 30.61111328 -2.99642578 30.61111328 -3.94921875 29.44921875 C-4.62597656 28.64097656 -5.30273438 27.83273438 -6 27 C-7.46239303 25.19077393 -8.92078387 23.378305 -10.375 21.5625 C-11.04273438 20.73878906 -11.71046875 19.91507813 -12.3984375 19.06640625 C-14.95657236 15.76578835 -15.39005024 13.31564564 -15.359375 9.10546875 C-14.72418186 5.38406547 -12.66020984 3.59687151 -10 1 C-6.72143332 -0.63928334 -3.51730696 -0.791889 0 0 Z " fill="#DA4343" transform="translate(15,0)"/>
<path d="M0 0 C6.875 0.875 6.875 0.875 8 2 C8.4509675 6.18031668 8.4839831 8.29983129 6.05859375 11.80859375 C4.76115234 13.10990234 4.76115234 13.10990234 3.4375 14.4375 C2.53128906 15.37851562 1.62507813 16.31953125 0.69140625 17.2890625 C-0.19675781 18.18367188 -1.08492187 19.07828125 -2 20 C-3.39062163 21.42239331 -4.76801075 22.85798585 -6.125 24.3125 C-6.68445313 24.88613281 -7.24390625 25.45976563 -7.8203125 26.05078125 C-9.53243302 28.8797486 -9.41892851 30.74714332 -9 34 C-7.57058327 36.69065804 -7.57058327 36.69065804 -5.5 39.1875 C-4.77554688 40.12851562 -4.05109375 41.06953125 -3.3046875 42.0390625 C-2.54414062 43.01617187 -1.78359375 43.99328125 -1 45 C0.46486513 47.01610358 1.92348708 49.03676218 3.375 51.0625 C5.16910713 53.55352126 6.83007814 55.83007814 9 58 C9.88892784 64.55584279 9.88892784 64.55584279 7.76171875 68.01171875 C4.71261706 71.62070511 1.99121277 74.69698936 -2.875 75.4375 C-6.93511587 74.86908378 -8.48609126 73.02887243 -11 70 C-14.06702202 65.76552793 -16.94955087 61.40500781 -19.828125 57.04101562 C-20.42109375 56.16767578 -21.0140625 55.29433594 -21.625 54.39453125 C-22.41777344 53.20114136 -22.41777344 53.20114136 -23.2265625 51.98364258 C-25.29612903 49.66877087 -27.0695217 48.92858906 -30 48 C-27.6875 45.5 -27.6875 45.5 -25 43 C-24.01 43 -23.02 43 -22 43 C-22 43.99 -22 44.98 -22 46 C-21.34 46 -20.68 46 -20 46 C-20 46.66 -20 47.32 -20 48 C-18.35 48 -16.7 48 -15 48 C-15 46.02 -15 44.04 -15 42 C-16.4540625 41.814375 -16.4540625 41.814375 -17.9375 41.625 C-18.948125 41.41875 -19.95875 41.2125 -21 41 C-22.53597454 37.92805092 -22.2265038 35.39755707 -22 32 C-20.625 28.875 -20.625 28.875 -19 26 C-18.31471955 24.34089996 -17.64108137 22.67667436 -17 21 C-16.34 21 -15.68 21 -15 21 C-14.91492187 20.27167969 -14.82984375 19.54335938 -14.7421875 18.79296875 C-13.84805423 15.42820408 -12.47992404 13.85288509 -10.125 11.3125 C-9.42632812 10.54550781 -8.72765625 9.77851563 -8.0078125 8.98828125 C-6 7 -6 7 -3 5 C-1.94895617 3.36504293 -0.94011682 1.70116376 0 0 Z " fill="#D73F3F" transform="translate(60,10)"/>
<path d="M0 0 C2.48219582 1.97133227 4.14847945 4.44751214 6 7 C7.15321752 8.34498262 8.3202311 9.67824578 9.5 11 C12.69478579 14.64305195 15.85295182 18.31565091 19 22 C24.50172237 17.9029727 28.17963939 13.20486656 31.89038086 7.49536133 C33.77567065 4.62219819 35.09242584 2.93838277 38 1 C43.72938986 1.22036115 47.33636072 2.89090715 52 6 C54.13586678 9.20380017 54.23132175 10.01939967 54.125 13.6875 C54.10695313 14.49574219 54.08890625 15.30398438 54.0703125 16.13671875 C54.04710938 16.75160156 54.02390625 17.36648437 54 18 C53.67 18 53.34 18 53 18 C52.505 15.03 52.505 15.03 52 12 C47.02093741 11.24572703 47.02093741 11.24572703 42 11 C41.72905518 11.59329102 41.45811035 12.18658203 41.17895508 12.79785156 C39.28340255 16.33851915 36.49514466 18.91431006 33.6875 21.75 C32.83381836 22.65298828 32.83381836 22.65298828 31.96289062 23.57421875 C27.66519214 27.92619357 27.66519214 27.92619357 24.21875 28.30859375 C23.4865625 28.20675781 22.754375 28.10492187 22 28 C19.09078375 29.74552975 17.91424376 31.12863436 16 34 C16.33 31.03 16.66 28.06 17 25 C16.01 24.67 15.02 24.34 14 24 C13.85304688 22.89398437 13.85304688 22.89398437 13.703125 21.765625 C12.91144417 18.65168041 11.85610153 17.14912435 9.75 14.75 C9.16734375 14.06421875 8.5846875 13.3784375 7.984375 12.671875 C5.66081635 10.7142311 3.98236036 10.34965604 1 10 C0.95101563 10.62648438 0.90203125 11.25296875 0.8515625 11.8984375 C0.77679688 12.71570312 0.70203125 13.53296875 0.625 14.375 C0.55539062 15.18710938 0.48578125 15.99921875 0.4140625 16.8359375 C0 19 0 19 -2 21 C-3.32 21 -4.64 21 -6 21 C-6.31490911 16.38133302 -5.8791071 14.54351644 -3 11 C-2.27648573 9.01985568 -1.59734611 7.02178685 -1 5 C-1.7425 5.474375 -2.485 5.94875 -3.25 6.4375 C-6 8 -6 8 -8.1875 8.4375 C-10.21995468 8.8486428 -10.21995468 8.8486428 -11.25 11.0625 C-11.4975 11.701875 -11.745 12.34125 -12 13 C-12.66 13 -13.32 13 -14 13 C-14.32470459 8.86001651 -14.4304413 6.66000999 -12.125 3.125 C-8.59146199 -0.40853801 -4.86019306 -1.09422733 0 0 Z " fill="#E85E5E" transform="translate(15,0)"/>
<path d="M0 0 C6.875 0.875 6.875 0.875 8 2 C8.43071978 6.09926412 8.51044287 8.26257523 6.12890625 11.703125 C5.28199219 12.54359375 4.43507813 13.3840625 3.5625 14.25 C2.65628906 15.18070313 1.75007813 16.11140625 0.81640625 17.0703125 C0.3486377 17.54758789 -0.11913086 18.02486328 -0.60107422 18.51660156 C-3.68306092 21.78469077 -6.39788134 25.3659004 -9.1875 28.8828125 C-11 31 -11 31 -13 32 C-12.43125124 35.98124131 -11.12345246 38.61272328 -9 42 C-10.97986082 41.88652381 -12.95891598 41.7589065 -14.9375 41.625 C-16.03964844 41.55539063 -17.14179687 41.48578125 -18.27734375 41.4140625 C-19.17582031 41.27742188 -20.07429688 41.14078125 -21 41 C-22.53597454 37.92805092 -22.2265038 35.39755707 -22 32 C-20.625 28.875 -20.625 28.875 -19 26 C-18.31471955 24.34089996 -17.64108137 22.67667436 -17 21 C-16.34 21 -15.68 21 -15 21 C-14.91492187 20.27167969 -14.82984375 19.54335938 -14.7421875 18.79296875 C-13.84805423 15.42820408 -12.47992404 13.85288509 -10.125 11.3125 C-9.42632812 10.54550781 -8.72765625 9.77851563 -8.0078125 8.98828125 C-6 7 -6 7 -3 5 C-1.94895617 3.36504293 -0.94011682 1.70116376 0 0 Z " fill="#C52F2E" transform="translate(60,10)"/>
<path d="M0 0 C0.33 0.99 0.66 1.98 1 3 C-0.74886102 4.91771657 -2.49904501 6.83419683 -4.25 8.75 C-4.74113281 9.28882813 -5.23226562 9.82765625 -5.73828125 10.3828125 C-6.22167969 10.91132812 -6.70507812 11.43984375 -7.203125 11.984375 C-7.6765332 12.50547852 -8.14994141 13.02658203 -8.63769531 13.56347656 C-10 15 -10 15 -12.375 17.09375 C-14.22544514 18.88366999 -14.22544514 18.88366999 -14.171875 21.359375 C-14.03265625 22.14828125 -13.8934375 22.9371875 -13.75 23.75 C-13.55664062 24.94882812 -13.55664062 24.94882812 -13.359375 26.171875 C-13.24078125 26.77515625 -13.1221875 27.3784375 -13 28 C-15.64 27.34 -18.28 26.68 -21 26 C-21.83589138 19.31286895 -21.83589138 19.31286895 -19.6171875 15.828125 C-16.39059427 12.11265401 -12.89635973 9.00576322 -9 6 C-8.34 5.01 -7.68 4.02 -7 3 C-4.69855891 1.92863949 -2.3659787 0.92010283 0 0 Z " fill="#B12322" transform="translate(61,23)"/>
<path d="M0 0 C2.9539367 1.18157468 4.49407022 2.54830805 6.5 5 C6.5 5.66 6.5 6.32 6.5 7 C5.18 7 3.86 7 2.5 7 C2.45101563 7.62648438 2.40203125 8.25296875 2.3515625 8.8984375 C2.27679688 9.71570312 2.20203125 10.53296875 2.125 11.375 C2.05539062 12.18710938 1.98578125 12.99921875 1.9140625 13.8359375 C1.5 16 1.5 16 -0.5 18 C-1.82 18 -3.14 18 -4.5 18 C-4.81490911 13.38133302 -4.3791071 11.54351644 -1.5 8 C-0.77648573 6.01985568 -0.09734611 4.02178685 0.5 2 C-0.28375 2.515625 -1.0675 3.03125 -1.875 3.5625 C-2.74125 4.036875 -3.6075 4.51125 -4.5 5 C-5.16 4.67 -5.82 4.34 -6.5 4 C-3.22727273 0 -3.22727273 0 0 0 Z " fill="#E25353" transform="translate(13.5,3)"/>
<path d="M0 0 C1.65 0.99 3.3 1.98 5 3 C4.92547376 6.13010209 4.59006466 8.29383097 2.55078125 10.734375 C-0.27873584 13.31224306 -2.07847921 14.88235905 -5.9375 15.375 C-6.618125 15.25125 -7.29875 15.1275 -8 15 C-7 13 -7 13 -4 12 C-4.12375 10.14375 -4.12375 10.14375 -4.25 8.25 C-4.2737948 4.89493302 -4.19641677 4.24552096 -2 1.5 C-1.34 1.005 -0.68 0.51 0 0 Z " fill="#B52B2B" transform="translate(62,69)"/>
<path d="M0 0 C0.66 0.66 1.32 1.32 2 2 C1.57847656 2.45890625 1.15695313 2.9178125 0.72265625 3.390625 C-0.09912109 4.31101562 -0.09912109 4.31101562 -0.9375 5.25 C-1.48277344 5.85328125 -2.02804687 6.4565625 -2.58984375 7.078125 C-4.06212799 9.08467305 -4.57529189 10.57002449 -5 13 C-4.4225 12.649375 -3.845 12.29875 -3.25 11.9375 C-0.64198224 10.85082593 0.39417629 11.06934867 3 12 C0.17389172 13.79843254 -2.51929187 15.21487939 -5.625 16.5 C-8.59062155 17.81805402 -9.90407119 18.6834471 -12 21 C-12.66 21 -13.32 21 -14 21 C-14.40240167 17.6306368 -14.23748322 16.32647476 -12.20703125 13.53515625 C-11.02173828 12.31119141 -11.02173828 12.31119141 -9.8125 11.0625 C-8.99523437 10.20011719 -8.17796875 9.33773437 -7.3359375 8.44921875 C-6.56507812 7.64097656 -5.79421875 6.83273438 -5 6 C-3.29568957 4.02720231 -1.64807508 2.02022106 0 0 Z " fill="#E84D4D" transform="translate(15,45)"/>
<path d="M0 0 C0.25523438 0.55558594 0.51046875 1.11117187 0.7734375 1.68359375 C2.1803308 4.34056103 3.83747417 6.64471107 5.625 9.0625 C6.33140625 10.02285156 7.0378125 10.98320313 7.765625 11.97265625 C8.50296875 12.97167969 9.2403125 13.97070312 10 15 C11.46010347 16.99870807 12.91851097 18.9986565 14.375 21 C15.34566406 22.3303125 15.34566406 22.3303125 16.3359375 23.6875 C17.59241336 25.43358852 18.80674244 27.21011366 20 29 C17.13522202 28.66223142 16.17570629 28.20940339 14.2890625 25.9609375 C13.73992188 25.10757813 13.19078125 24.25421875 12.625 23.375 C10.49830906 20.17357873 8.38350144 17.16989147 5.8125 14.3125 C2.96024017 11.06153718 0.85118065 7.92450299 -1 4 C-0.75 1.5625 -0.75 1.5625 0 0 Z " fill="#CA7272" transform="translate(49,40)"/>
<path d="M0 0 C0.66 0.33 1.32 0.66 2 1 C-8.2454649 14.54254269 -8.2454649 14.54254269 -14 18 C-17.5 17.9375 -17.5 17.9375 -20 17 C-20 16.67 -20 16.34 -20 16 C-17.36 15.67 -14.72 15.34 -12 15 C-11.91492187 14.24976562 -11.82984375 13.49953125 -11.7421875 12.7265625 C-10.84794559 9.44140012 -9.75008412 8.48083671 -7.125 6.375 C-4.62686425 4.33777491 -2.23833396 2.32279939 0 0 Z " fill="#C14343" transform="translate(28,60)"/>
<path d="M0 0 C0.33 0.66 0.66 1.32 1 2 C0.34 1.67 -0.32 1.34 -1 1 C-0.67 0.67 -0.34 0.34 0 0 Z M-3 2 C-2.34 2.33 -1.68 2.66 -1 3 C-1.45375 3.94875 -1.9075 4.8975 -2.375 5.875 C-4.34585006 10.42383401 -5.16796155 15.13502224 -6 20 C-3.69 20.33 -1.38 20.66 1 21 C1.33 20.01 1.66 19.02 2 18 C2.99 19.65 3.98 21.3 5 23 C3.02013918 22.88652381 1.04108402 22.7589065 -0.9375 22.625 C-2.03964844 22.55539063 -3.14179687 22.48578125 -4.27734375 22.4140625 C-5.17582031 22.27742188 -6.07429688 22.14078125 -7 22 C-8.53597454 18.92805092 -8.2265038 16.39755707 -8 13 C-6.625 9.875 -6.625 9.875 -5 7 C-4.31471955 5.34089996 -3.64108137 3.67667436 -3 2 Z " fill="#CB3231" transform="translate(46,29)"/>
<path d="M0 0 C0.8971875 0.9590625 0.8971875 0.9590625 1.8125 1.9375 C3.90810337 4.20310389 3.90810337 4.20310389 7 5 C7.41661757 8.40237686 7.64447802 10.97701901 5.76953125 13.953125 C3.3427352 16.80535937 1.13506559 18.90995627 -2 21 C-5.1875 21.125 -5.1875 21.125 -8 21 C-8 20.67 -8 20.34 -8 20 C-7.113125 19.7525 -6.22625 19.505 -5.3125 19.25 C-1.77784512 17.91616797 0.33307092 16.66692908 3 14 C4.34772903 10.87866256 4.34772903 10.87866256 5 8 C4.21625 7.690625 3.4325 7.38125 2.625 7.0625 C0 6 0 6 -2 5 C-1.34 4.34 -0.68 3.68 0 3 C0 2.01 0 1.02 0 0 Z " fill="#C34D4D" transform="translate(62,64)"/>
<path d="M0 0 C3.38324586 1.41334729 4.99605417 2.9794421 7.125 5.9375 C10.78352144 10.84741112 14.86294041 15.26907695 19.05859375 19.71484375 C21 22 21 22 21 24 C19.02 24 17.04 24 15 24 C14.979375 23.175 14.95875 22.35 14.9375 21.5 C13.80067452 17.25585155 11.93553026 15.32488028 8.98828125 12.1640625 C6.88911354 9.87931022 4.96949346 7.50935516 3.0625 5.0625 C2.47597656 4.31097656 1.88945312 3.55945313 1.28515625 2.78515625 C0 1 0 1 0 0 Z " fill="#E67777" transform="translate(14,1)"/>
<path d="M0 0 C0.33 0.66 0.66 1.32 1 2 C0.48308594 2.51949219 -0.03382812 3.03898438 -0.56640625 3.57421875 C-1.55447266 4.62029297 -1.55447266 4.62029297 -2.5625 5.6875 C-3.22378906 6.37199219 -3.88507812 7.05648438 -4.56640625 7.76171875 C-6.29564455 9.95007705 -6.29564455 9.95007705 -5.71484375 12.76953125 C-5.47894531 13.50558594 -5.24304687 14.24164063 -5 15 C-5.94875 15.598125 -6.8975 16.19625 -7.875 16.8125 C-11.13964197 18.81562526 -11.13964197 18.81562526 -13 22 C-12.505 17.545 -12.505 17.545 -12 13 C-11.01 13 -10.02 13 -9 13 C-8.91878906 12.43796875 -8.83757813 11.8759375 -8.75390625 11.296875 C-7.75955531 8.26745347 -6.09624473 6.58007368 -3.9375 4.25 C-3.20402344 3.45078125 -2.47054687 2.6515625 -1.71484375 1.828125 C-1.14894531 1.22484375 -0.58304688 0.6215625 0 0 Z " fill="#EE4F4F" transform="translate(44,12)"/>
<path d="M0 0 C1.10979907 1.66469861 2.21431203 3.33308738 3.296875 5.015625 C6.55297586 10.02231771 10.02033672 14.54656728 14 19 C13.67 19.66 13.34 20.32 13 21 C11.411583 19.29639246 9.82949619 17.58688171 8.25 15.875 C6.92742188 14.44800781 6.92742188 14.44800781 5.578125 12.9921875 C3.09331734 10.10830467 0.94733997 7.27006146 -1 4 C-0.75 1.625 -0.75 1.625 0 0 Z " fill="#BB4C4C" transform="translate(47,41)"/>
<path d="M0 0 C0 1.98 0 3.96 0 6 C-3.75 7.125 -3.75 7.125 -6 6 C-6 5.34 -6 4.68 -6 4 C-6.66 4 -7.32 4 -8 4 C-8 3.01 -8 2.02 -8 1 C-5.10765685 0.17361624 -3.11257569 0 0 0 Z " fill="#DF5353" transform="translate(46,52)"/>
<path d="M0 0 C4 1 4 1 6 3 C6.125 5.625 6.125 5.625 6 8 C4.35 8.33 2.7 8.66 1 9 C0.67 6.03 0.34 3.06 0 0 Z " fill="#A4201F" transform="translate(61,12)"/>
<path d="M0 0 C1.67542976 0.28604898 3.34385343 0.61781233 5 1 C5.33 2.65 5.66 4.3 6 6 C3.92446352 6.5534764 2.15634036 7 0 7 C-0.38133299 5.0085944 -0.71325582 3.00720923 -1 1 C-0.67 0.67 -0.34 0.34 0 0 Z " fill="#D63837" transform="translate(18,11)"/>
<path d="M0 0 C0.33 0 0.66 0 1 0 C1.875 2.6875 1.875 2.6875 2 6 C0.22557447 8.35796144 -1.43669443 9.37328685 -4 11 C-4.99 10.67 -5.98 10.34 -7 10 C-6.8125 8.1875 -6.8125 8.1875 -6 6 C-4.35178756 4.96986723 -2.68496298 3.96885372 -1 3 C-0.67 2.01 -0.34 1.02 0 0 Z " fill="#D44545" transform="translate(61,62)"/>
<path d="M0 0 C1 1 1 1 1.09765625 3.06640625 C1.08605469 3.89011719 1.07445313 4.71382812 1.0625 5.5625 C1.05347656 6.38878906 1.04445313 7.21507812 1.03515625 8.06640625 C1.02355469 8.70449219 1.01195313 9.34257812 1 10 C0.67 10 0.34 10 0 10 C-0.33 8.02 -0.66 6.04 -1 4 C-3.64 3.67 -6.28 3.34 -9 3 C-8.67 2.01 -8.34 1.02 -8 0 C-4.69676014 -1.10107995 -3.29495231 -0.86709271 0 0 Z " fill="#D15757" transform="translate(68,8)"/>
<path d="M0 0 C3.26148815 3.02852471 5.60902263 6.25413546 8 10 C8.99 11.485 8.99 11.485 10 13 C7.19099964 12.64582169 6.18543998 12.21351117 4.296875 10.0390625 C3.78640625 9.24242188 3.2759375 8.44578125 2.75 7.625 C2.22921875 6.83351563 1.7084375 6.04203125 1.171875 5.2265625 C0 3 0 3 0 0 Z " fill="#D87979" transform="translate(59,56)"/>
<path d="M0 0 C0.66 0.66 1.32 1.32 2 2 C1.0919838 3.13199353 0.17316174 4.25532363 -0.75 5.375 C-1.26046875 6.00148438 -1.7709375 6.62796875 -2.296875 7.2734375 C-4.08199481 9.08312318 -5.67949644 10.00117455 -8 11 C-6.63629701 8.00779732 -5.05091917 5.70973471 -2.875 3.25 C-2.33617187 2.63640625 -1.79734375 2.0228125 -1.2421875 1.390625 C-0.62730469 0.70226563 -0.62730469 0.70226563 0 0 Z " fill="#EC4545" transform="translate(15,45)"/>
<path d="M0 0 C0.99 0 1.98 0 3 0 C2.67 2.31 2.34 4.62 2 7 C0.68 7 -0.64 7 -2 7 C-2.125 4.625 -2.125 4.625 -2 2 C-1.34 1.34 -0.68 0.68 0 0 Z " fill="#E55C5C" transform="translate(11,13)"/>
<path d="M0 0 C0.66 0 1.32 0 2 0 C0.63629701 2.99220268 -0.94908083 5.29026529 -3.125 7.75 C-3.93324219 8.67039062 -3.93324219 8.67039062 -4.7578125 9.609375 C-5.16773438 10.06828125 -5.57765625 10.5271875 -6 11 C-6.61328125 9.140625 -6.61328125 9.140625 -7 7 C-5.1875 4.75 -5.1875 4.75 -3 3 C-2.34 3 -1.68 3 -1 3 C-0.67 2.01 -0.34 1.02 0 0 Z " fill="#B93333" transform="translate(55,30)"/>
<path d="M0 0 C1.65 1.65 3.3 3.3 5 5 C3 5 1 5 -1 5 C-1.66 6.32 -2.32 7.64 -3 9 C-2.44271087 5.65626525 -1.64826111 2.96687001 0 0 Z " fill="#E04D4D" transform="translate(24,14)"/>
<path d="M0 0 C1.875 0.25 1.875 0.25 4 1 C5.25 3.0625 5.25 3.0625 6 5 C4.02 5 2.04 5 0 5 C0 3.35 0 1.7 0 0 Z " fill="#EA6767" transform="translate(29,20)"/>
<path d="M0 0 C6.875 0.875 6.875 0.875 8 2 C8.04092937 4.33297433 8.04241723 6.66705225 8 9 C7.731875 8.401875 7.46375 7.80375 7.1875 7.1875 C5.3372571 3.77915781 3.22286458 2.14857639 0 0 Z " fill="#BA3737" transform="translate(60,10)"/>
<path d="M0 0 C0 3 0 3 -1.375 4.6875 C-3 6 -3 6 -5 6 C-4.75 4.125 -4.75 4.125 -4 2 C-1.9375 0.75 -1.9375 0.75 0 0 Z " fill="#C83030" transform="translate(23,55)"/>
<path d="M0 0 C0.99 1.32 1.98 2.64 3 4 C2.01 4.66 1.02 5.32 0 6 C-0.66 5.67 -1.32 5.34 -2 5 C-1.125 1.125 -1.125 1.125 0 0 Z " fill="#E15252" transform="translate(56,67)"/>
<path d="M0 0 C0.33 0 0.66 0 1 0 C1 1.65 1 3.3 1 5 C0.67 5 0.34 5 0 5 C0 3.35 0 1.7 0 0 Z " fill="#C25B5B" transform="translate(51,39)"/>
<path d="M0 0 C4 1 4 1 4 1 Z " fill="#C34848" transform="translate(10,79)"/>
<path d="M0 0 C1 4 1 4 1 4 Z " fill="#E63E3E" transform="translate(16,38)"/>
<path d="M0 0 C2 1 2 1 2 1 Z " fill="#BA3E3E" transform="translate(61,84)"/>
<path d="" fill="#D83C3C" transform="translate(0,0)"/>
<path d="" fill="#DC4645" transform="translate(0,0)"/>
<path d="M0 0 C2 1 2 1 2 1 Z " fill="#BC3C3C" transform="translate(14,78)"/>
<path d="M0 0 C2 1 2 1 2 1 Z " fill="#C74343" transform="translate(8,78)"/>
<path d="M0 0 C2 1 2 1 2 1 Z " fill="#CD4444" transform="translate(6,77)"/>
<path d="" fill="#DA3F3F" transform="translate(0,0)"/>
<path d="" fill="#E13B3B" transform="translate(0,0)"/>
<path d="" fill="#C04242" transform="translate(0,0)"/>
<path d="" fill="#DA4848" transform="translate(0,0)"/>
<path d="" fill="#D57878" transform="translate(0,0)"/>
<path d="M0 0 C2 1 2 1 2 1 Z " fill="#CE4040" transform="translate(32,59)"/>
<path d="" fill="#ED4444" transform="translate(0,0)"/>
<path d="" fill="#C87171" transform="translate(0,0)"/>
<path d="" fill="#E95A5A" transform="translate(0,0)"/>
<path d="" fill="#C97777" transform="translate(0,0)"/>
<path d="" fill="#C87777" transform="translate(0,0)"/>
<path d="" fill="#E94C4B" transform="translate(0,0)"/>
<path d="" fill="#BB3838" transform="translate(0,0)"/>
<path d="" fill="#E43C3A" transform="translate(0,0)"/>
<path d="" fill="#B12D2E" transform="translate(0,0)"/>
<path d="" fill="#AC2E2E" transform="translate(0,0)"/>
<path d="" fill="#F14D4D" transform="translate(0,0)"/>
<path d="" fill="#EF5353" transform="translate(0,0)"/>
<path d="" fill="#EA5D5E" transform="translate(0,0)"/>
<path d="" fill="#E47272" transform="translate(0,0)"/>
<path d="" fill="#EE5959" transform="translate(0,0)"/>
<path d="" fill="#E56464" transform="translate(0,0)"/>
<path d="" fill="#EF6060" transform="translate(0,0)"/>
<path d="M0 0 C2 1 2 1 2 1 Z " fill="#E46565" transform="translate(60,1)"/>
<path d="M0 0 C2 1 2 1 2 1 Z " fill="#EE5959" transform="translate(50,1)"/>
<path d="M0 0 C2 1 2 1 2 1 Z " fill="#E66C6C" transform="translate(58,0)"/>
<path d="" fill="#D64A4A" transform="translate(0,0)"/>
<path d="" fill="#BE4F4F" transform="translate(0,0)"/>
<path d="" fill="#D74949" transform="translate(0,0)"/>
<path d="" fill="#BC4B4B" transform="translate(0,0)"/>
<path d="" fill="#BA4646" transform="translate(0,0)"/>
<path d="" fill="#BA4444" transform="translate(0,0)"/>
<path d="" fill="#DC4545" transform="translate(0,0)"/>
<path d="" fill="#BA4545" transform="translate(0,0)"/>
<path d="" fill="#DD4A4A" transform="translate(0,0)"/>
<path d="" fill="#BB4646" transform="translate(0,0)"/>
<path d="" fill="#BE4444" transform="translate(0,0)"/>
<path d="" fill="#DC4C4C" transform="translate(0,0)"/>
<path d="" fill="#B53030" transform="translate(0,0)"/>
<path d="" fill="#D14949" transform="translate(0,0)"/>
<path d="" fill="#B12727" transform="translate(0,0)"/>
<path d="" fill="#D24444" transform="translate(0,0)"/>
<path d="" fill="#BB3B3B" transform="translate(0,0)"/>
<path d="" fill="#D43D3D" transform="translate(0,0)"/>
<path d="" fill="#DE4D4C" transform="translate(0,0)"/>
<path d="" fill="#BF4444" transform="translate(0,0)"/>
<path d="" fill="#D83C3C" transform="translate(0,0)"/>
<path d="" fill="#C14546" transform="translate(0,0)"/>
<path d="" fill="#D84040" transform="translate(0,0)"/>
<path d="" fill="#C34848" transform="translate(0,0)"/>
<path d="" fill="#DB4848" transform="translate(0,0)"/>
<path d="" fill="#E14949" transform="translate(0,0)"/>
<path d="" fill="#C44949" transform="translate(0,0)"/>
<path d="" fill="#E04A4A" transform="translate(0,0)"/>
<path d="" fill="#C54B4B" transform="translate(0,0)"/>
<path d="" fill="#C64C4C" transform="translate(0,0)"/>
<path d="" fill="#DD4646" transform="translate(0,0)"/>
<path d="" fill="#DD7C7C" transform="translate(0,0)"/>
<path d="" fill="#DC4C4C" transform="translate(0,0)"/>
<path d="" fill="#DC7E7E" transform="translate(0,0)"/>
<path d="" fill="#C14646" transform="translate(0,0)"/>
<path d="" fill="#D97D7D" transform="translate(0,0)"/>
<path d="" fill="#C34848" transform="translate(0,0)"/>
<path d="" fill="#DB4949" transform="translate(0,0)"/>
<path d="" fill="#C54949" transform="translate(0,0)"/>
<path d="" fill="#DD4C4C" transform="translate(0,0)"/>
<path d="" fill="#C64A4A" transform="translate(0,0)"/>
<path d="" fill="#D47675" transform="translate(0,0)"/>
<path d="" fill="#DC4141" transform="translate(0,0)"/>
<path d="" fill="#C03737" transform="translate(0,0)"/>
<path d="" fill="#EE4747" transform="translate(0,0)"/>
<path d="" fill="#D47878" transform="translate(0,0)"/>
<path d="" fill="#EE4A4A" transform="translate(0,0)"/>
<path d="" fill="#D17170" transform="translate(0,0)"/>
<path d="" fill="#ED4A4A" transform="translate(0,0)"/>
<path d="" fill="#ED4747" transform="translate(0,0)"/>
<path d="" fill="#D07676" transform="translate(0,0)"/>
<path d="" fill="#CC7271" transform="translate(0,0)"/>
<path d="" fill="#EF4242" transform="translate(0,0)"/>
<path d="" fill="#EE4141" transform="translate(0,0)"/>
<path d="" fill="#D17B7B" transform="translate(0,0)"/>
<path d="" fill="#ED4444" transform="translate(0,0)"/>
<path d="" fill="#D07B7B" transform="translate(0,0)"/>
<path d="" fill="#EA4D4D" transform="translate(0,0)"/>
<path d="" fill="#CF7B7B" transform="translate(0,0)"/>
<path d="" fill="#CC7A79" transform="translate(0,0)"/>
<path d="" fill="#EC4444" transform="translate(0,0)"/>
<path d="" fill="#EC4545" transform="translate(0,0)"/>
<path d="" fill="#CE7D7D" transform="translate(0,0)"/>
<path d="" fill="#EC4544" transform="translate(0,0)"/>
<path d="" fill="#EB4545" transform="translate(0,0)"/>
<path d="" fill="#EA4A4A" transform="translate(0,0)"/>
<path d="" fill="#B52D2D" transform="translate(0,0)"/>
<path d="" fill="#B22C2C" transform="translate(0,0)"/>
<path d="" fill="#E03F3E" transform="translate(0,0)"/>
<path d="" fill="#B53333" transform="translate(0,0)"/>
<path d="" fill="#DF4040" transform="translate(0,0)"/>
<path d="" fill="#B93535" transform="translate(0,0)"/>
<path d="" fill="#DE4242" transform="translate(0,0)"/>
<path d="" fill="#BB3939" transform="translate(0,0)"/>
<path d="" fill="#BB3C3C" transform="translate(0,0)"/>
<path d="" fill="#E03838" transform="translate(0,0)"/>
<path d="" fill="#BA3B3B" transform="translate(0,0)"/>
<path d="" fill="#DD3F3F" transform="translate(0,0)"/>
<path d="" fill="#B83939" transform="translate(0,0)"/>
<path d="" fill="#DE4141" transform="translate(0,0)"/>
<path d="" fill="#B93A3A" transform="translate(0,0)"/>
<path d="" fill="#DD3F3F" transform="translate(0,0)"/>
<path d="" fill="#DE4040" transform="translate(0,0)"/>
<path d="" fill="#B02F2F" transform="translate(0,0)"/>
<path d="" fill="#B43535" transform="translate(0,0)"/>
<path d="" fill="#DD3C3C" transform="translate(0,0)"/>
<path d="" fill="#B63838" transform="translate(0,0)"/>
<path d="" fill="#DA3E3E" transform="translate(0,0)"/>
<path d="" fill="#B83939" transform="translate(0,0)"/>
<path d="" fill="#D83D3D" transform="translate(0,0)"/>
<path d="" fill="#B73A39" transform="translate(0,0)"/>
<path d="" fill="#EF6060" transform="translate(0,0)"/>
<path d="" fill="#D83D3D" transform="translate(0,0)"/>
<path d="" fill="#F14E4E" transform="translate(0,0)"/>
<path d="" fill="#EA7575" transform="translate(0,0)"/>
<path d="" fill="#D83E3E" transform="translate(0,0)"/>
<path d="" fill="#E97777" transform="translate(0,0)"/>
<path d="" fill="#DA3F3F" transform="translate(0,0)"/>
<path d="" fill="#E87575" transform="translate(0,0)"/>
<path d="" fill="#F44948" transform="translate(0,0)"/>
<path d="" fill="#E66F6F" transform="translate(0,0)"/>
<path d="" fill="#DA3C3B" transform="translate(0,0)"/>
<path d="" fill="#F44848" transform="translate(0,0)"/>
<path d="" fill="#F44848" transform="translate(0,0)"/>
<path d="" fill="#E57C7C" transform="translate(0,0)"/>
<path d="" fill="#F44848" transform="translate(0,0)"/>
<path d="" fill="#E57777" transform="translate(0,0)"/>
<path d="" fill="#F24848" transform="translate(0,0)"/>
<path d="" fill="#E57575" transform="translate(0,0)"/>
<path d="" fill="#F04D4D" transform="translate(0,0)"/>
<path d="" fill="#E57474" transform="translate(0,0)"/>
<path d="" fill="#E67373" transform="translate(0,0)"/>
<path d="" fill="#E67574" transform="translate(0,0)"/>
<path d="" fill="#F05151" transform="translate(0,0)"/>
<path d="" fill="#E57373" transform="translate(0,0)"/>
<path d="" fill="#E28180" transform="translate(0,0)"/>
<path d="" fill="#F05353" transform="translate(0,0)"/>
<path d="" fill="#E57878" transform="translate(0,0)"/>
<path d="" fill="#E17978" transform="translate(0,0)"/>
<path d="" fill="#E47A7A" transform="translate(0,0)"/>
<path d="" fill="#E25D5D" transform="translate(0,0)"/>
<path d="" fill="#F34B4A" transform="translate(0,0)"/>
<path d="" fill="#E47373" transform="translate(0,0)"/>
<path d="" fill="#F25050" transform="translate(0,0)"/>
<path d="" fill="#E76D6D" transform="translate(0,0)"/>
<path d="" fill="#F34A4A" transform="translate(0,0)"/>
<path d="" fill="#E47171" transform="translate(0,0)"/>
<path d="" fill="#F15455" transform="translate(0,0)"/>
<path d="" fill="#E66969" transform="translate(0,0)"/>
<path d="" fill="#F15556" transform="translate(0,0)"/>
<path d="" fill="#F05757" transform="translate(0,0)"/>
<path d="" fill="#E66C6C" transform="translate(0,0)"/>
<path d="" fill="#F25353" transform="translate(0,0)"/>
</svg>
